<svg xmlns:inkscape="http://www.inkscape.org/namespaces/inkscape" xmlns:rdf="http://www.w3.org/1999/02/22-rdf-syntax-ns#" xmlns="http://www.w3.org/2000/svg" xmlns:cc="http://creativecommons.org/ns#" xmlns:dc="http://purl.org/dc/elements/1.1/" xmlns:sodipodi="http://sodipodi.sourceforge.net/DTD/sodipodi-0.dtd" xmlns:svg="http://www.w3.org/2000/svg" xmlns:ns1="http://sozi.baierouge.fr" xmlns:xlink="http://www.w3.org/1999/xlink" id="svg4034" sodipodi:docname="New document 7" version="1.1" inkscape:version="0.48.2 r9819" viewBox="138.43 112.78 471.78 396.29">   <sodipodi:namedview id="base" bordercolor="#666666" inkscape:pageshadow="2" inkscape:window-y="-8" pagecolor="#ffffff" inkscape:window-height="706" inkscape:window-maximized="1" inkscape:zoom="0.35" inkscape:window-x="-8" showgrid="false" borderopacity="1.0" inkscape:current-layer="layer1" inkscape:cx="375" inkscape:cy="520" inkscape:window-width="1366" inkscape:pageopacity="0.0" inkscape:document-units="px"/>   <g id="layer1" inkscape:label="Layer 1" inkscape:groupmode="layer">     <g id="g3824" transform="matrix(1.5415 0 0 1.4802 -632.2 28.4)">       <g id="g3819" style="fill:#552200" transform="translate(369,-12)">         <path id="path3811" style="fill-rule:evenodd;fill:#552200" inkscape:connector-curvature="0" d="m130.92 239.34v-97.391l2.5268-9.7253c9.2144-35.464 33.83-58.152 68.063-62.732 20.945-2.8024 46.098 6.7001 62.91 23.767 8.2234 8.3477 13.505 16.899 17.276 27.972l2.7244 8 0.27681 103.75 0.27681 103.75h-77.027-77.027v-97.391zm83.996 68.902c2.9271-7.4188 6.1505-14.238 7.1632-15.155 2.948-2.6679 2.1975-3.3564-3.6587-3.3564-5.232 0-7.3077 1.3691-4 2.6384 0.825 0.31659 1.5 1.6267 1.5 2.9114 0 2.68-4.9108 16.451-5.8659 16.449-1.12-0.002-7.1222-18.866-6.5103-20.461 0.4835-1.26-0.33246-1.5378-4.5169-1.5378-4.9817 0-6.4914 1.0893-3.7425 2.7003 2.0008 1.1726 3.9146 5.4472 8.0813 18.05 2.108 6.3758 4.2629 11.25 4.9736 11.25 0.68977 0 3.649-6.0699 6.576-13.489zm12-44c2.9271-7.4188 6.1505-14.238 7.1632-15.155 2.948-2.6679 2.1975-3.3564-3.6587-3.3564-5.232 0-7.3077 1.3691-4 2.6384 0.825 0.31659 1.5 1.6267 1.5 2.9114 0 2.68-4.9108 16.451-5.8659 16.449-1.12-0.002-7.1222-18.866-6.5103-20.461 0.4835-1.26-0.33246-1.5378-4.5169-1.5378-4.9817 0-6.4914 1.0893-3.7425 2.7003 2.0008 1.1726 3.9146 5.4472 8.0813 18.05 2.108 6.3758 4.2629 11.25 4.9736 11.25 0.68977 0 3.649-6.0699 6.576-13.489zm-25.996 10.729c0-0.4177-0.9-1.3215-2-2.0085-1.8114-1.1312-2-2.332-2-12.732s0.18863-11.601 2-12.732c3.3648-2.1014 2.2811-2.7679-4.5-2.7679s-7.8648 0.66657-4.5 2.7679c1.8208 1.1371 2 2.332 2 13.334 0 11.244-0.13918 12.122-2 12.608-4.1389 1.0824-1.766 2.2898 4.5 2.2898 3.575 0 6.5-0.34175 6.5-0.75945zm26-42c0-0.4177-0.9-1.3215-2-2.0085-1.8114-1.1312-2-2.332-2-12.732s0.18863-11.601 2-12.732c1.1-0.68696 2-1.5908 2-2.0085s-7.875-0.75945-17.5-0.75945-17.5 0.34175-17.5 0.75945 0.9 1.3215 2 2.0085c1.8208 1.1371 2 2.332 2 13.334 0 11.244-0.13918 12.122-2 12.608-5.6724 1.4834-0.21388 2.2898 15.5 2.2898 9.625 0 17.5-0.34175 17.5-0.75945zm-22-44c0-0.4177-0.9-1.3215-2-2.0085-1.8114-1.1312-2-2.332-2-12.732s0.18863-11.601 2-12.732c3.3648-2.1014 2.2811-2.7679-4.5-2.7679s-7.8648 0.66657-4.5 2.7679c1.8208 1.1371 2 2.332 2 13.334 0 11.244-0.13918 12.122-2 12.608-4.1389 1.0824-1.766 2.2898 4.5 2.2898 3.575 0 6.5-0.34175 6.5-0.75945zm22 0c0-0.4177-0.9-1.3215-2-2.0085-1.8114-1.1312-2-2.332-2-12.732s0.18863-11.601 2-12.732c3.3648-2.1014 2.2811-2.7679-4.5-2.7679s-7.8648 0.66657-4.5 2.7679c1.8208 1.1371 2 2.332 2 13.334 0 11.244-0.13918 12.122-2 12.608-4.1389 1.0824-1.766 2.2898 4.5 2.2898 3.575 0 6.5-0.34175 6.5-0.75945zm-12-44c0-0.4177-0.9-1.3215-2-2.0085-1.8114-1.1312-2-2.332-2-12.732s0.18863-11.601 2-12.732c3.3648-2.1014 2.2811-2.7679-4.5-2.7679s-7.8648 0.66657-4.5 2.7679c1.8208 1.1371 2 2.332 2 13.334 0 11.244-0.13918 12.122-2 12.608-4.1389 1.0824-1.766 2.2898 4.5 2.2898 3.575 0 6.5-0.34175 6.5-0.75945z"/>         <path id="path3813" style="fill-rule:evenodd;fill:#552200" inkscape:connector-curvature="0" d="m202.13 230.55c-1.8003-1.8003-1.6662-23.191 0.15482-24.702 2.8246-2.3442 3.7107 1.1455 3.4154 13.45-0.27838 11.598-0.98798 13.834-3.5702 11.252z"/>         <path id="path3815" style="fill-rule:evenodd;fill:#552200" inkscape:connector-curvature="0" d="m212.16 230.57c-0.83671-0.83671-1.2383-4.8634-1.2383-12.416 0-8.9786 0.31159-11.436 1.5838-12.492 1.1494-0.95389 2.0409-1.0262 3.25-0.26346 1.4087 0.88859 1.6662 2.9657 1.6662 13.442 0 11.653-0.11985 12.408-2.0117 12.679-1.1064 0.15858-2.5689-0.26892-3.25-0.95z"/>       </g>       <path id="path3817" d="m651.92 227.34v-97.391l2.5268-9.7253c9.2144-35.464 33.83-58.152 68.063-62.732 20.945-2.8024 46.098 6.7001 62.91 23.767 8.2234 8.3477 13.505 16.899 17.276 27.972l2.7244 8 0.27681 103.75 0.27681 103.75h-77.027-77.027v-97.391zm80 78.391c0-0.55-0.675-1-1.5-1-2.1372 0-1.8544-3.285 0.64782-7.526l2.1478-3.6403 3.0882 5.3331c1.6985 2.9332 2.9622 5.8956 2.8083 6.5831-0.19517 0.87177 1.2463 1.25 4.764 1.25 5.3678 0 6.2439-0.76944 3.1068-2.7286-1.0654-0.66532-3.8179-4.3756-6.1167-8.2451l-4.1797-7.0355 3.6846-4.4966c2.0265-2.4731 4.554-4.9619 5.6167-5.5306 3.5081-1.8775 2.0172-2.9637-4.0679-2.9637-5.988 0-7.5385 1.0396-4.2747 2.8662 1.6283 0.91124 1.6232 1.1797-0.0901 4.7726l-1.8155 3.8071-2.4048-3.9729c-1.3226-2.1851-2.407-4.7604-2.4099-5.7229-0.004-1.4326-0.91183-1.75-5.0051-1.75-5.1821 0-6.4056 1.1774-3.0756 2.9595 1.0584 0.56645 3.5686 3.7366 5.5782 7.0447l3.6538 6.0148-3.6536 4.9773c-2.0095 2.7375-4.7447 5.8355-6.0782 6.8844s-2.4245 2.1799-2.4245 2.5132c0 0.33334 2.7 0.60608 6 0.60608 3.3333 0 6-0.44444 6-1zm-7-42.893c0-0.49116-0.675-1.152-1.5-1.4686-1.222-0.46891-1.5-2.8786-1.5-13s0.27804-12.531 1.5-13c3.431-1.3166 1.1766-2.6384-4.5-2.6384s-7.931 1.3218-4.5 2.6384c1.222 0.46891 1.5 2.8786 1.5 13s-0.27804 12.531-1.5 13c-3.2844 1.2604-1.1859 2.3616 4.5 2.3616 3.3 0 6-0.40186 6-0.89301zm11-0.56623c0-1.7621 5.1822-10.541 6.2224-10.541 0.40533 0 1.6413 1.7727 2.7466 3.9392 1.78 3.489 1.8394 4.1095 0.52033 5.4286-2.351 2.351-1.8692 2.6322 4.5107 2.6322 5.8495 0 7.9257-1.254 4.0911-2.4711-2.0285-0.6438-10.091-10.677-10.091-12.558 0-1.9398 5.0964-9.9017 7.5974-11.869 3.7162-2.9232 2.9698-4.1021-2.5974-4.1021-4.4365 0-5 0.24027-5 2.132 0 1.1726-0.97168 3.7042-2.1593 5.6258l-2.1593 3.4938-1.7988-3.3758c-2.2964-4.3096-2.2898-4.6118 0.11737-5.3758 3.9173-1.2433 1.9066-2.5-4-2.5-4.5412 0-6 0.34831-6 1.4326 0 0.78794 0.8294 1.6959 1.8431 2.0176 1.0137 0.32174 3.3344 2.6615 5.157 5.1994l3.3139 4.6145-2.407 4.5291c-1.3238 2.491-4.0945 6.3298-6.157 8.5307s-3.75 4.1533-3.75 4.3388c0 0.18548 2.25 0.33723 5 0.33723 3.7157 0 5-0.37482 5-1.4592zm-28.275-49.041c2.4684-7.15 5.3401-13.929 6.3814-15.064 2.7433-2.9912 2.4062-3.4356-2.6067-3.4356-3.9898 0-4.5039 0.2551-4.5344 2.25-0.0189 1.2375-1.5283 6.4978-3.3542 11.69l-3.3198 9.4396-3.1458-8.1574c-3.6931-9.5764-3.8075-10.797-1.1458-12.222 3.5743-1.9129 2.1248-3-4-3-5.861 0-7.543 1.0371-4.4706 2.7565 1.5053 0.84241 7.4365 13.686 11.092 24.02 1.1686 3.3034 2.3806 5.173 3.2411 5 0.77798-0.1564 3.3223-5.9182 5.8626-13.276zm26.275 10.5c0-0.55-0.675-1-1.5-1-1.2558 0-1.5-2.0992-1.5-12.893 0-10.538 0.27399-12.998 1.5-13.469 3.431-1.3166 1.1766-2.6384-4.5-2.6384s-7.931 1.3218-4.5 2.6384c1.222 0.46891 1.5 2.8786 1.5 13s-0.27804 12.531-1.5 13c-3.2844 1.2604-1.1859 2.3616 4.5 2.3616 3.3333 0 6-0.44444 6-1zm18 0.24055c0-0.4177-0.9-1.3215-2-2.0085-1.8114-1.1312-2-2.332-2-12.732s0.18863-11.601 2-12.732c3.3648-2.1014 2.2811-2.7679-4.5-2.7679s-7.8648 0.66657-4.5 2.7679c1.8208 1.1371 2 2.332 2 13.334 0 11.244-0.13918 12.122-2 12.608-4.1389 1.0824-1.766 2.2898 4.5 2.2898 3.575 0 6.5-0.34175 6.5-0.75945zm17 0c0-0.4177-0.9-1.3215-2-2.0085-1.8114-1.1312-2-2.332-2-12.732s0.18863-11.601 2-12.732c3.3648-2.1014 2.2811-2.7679-4.5-2.7679s-7.8648 0.66657-4.5 2.7679c1.8208 1.1371 2 2.332 2 13.334 0 11.244-0.13918 12.122-2 12.608-4.1389 1.0824-1.766 2.2898 4.5 2.2898 3.575 0 6.5-0.34175 6.5-0.75945zm-51.275-54.741c2.4684-7.15 5.3401-13.929 6.3814-15.064 2.7433-2.9912 2.4062-3.4356-2.6067-3.4356-3.9898 0-4.5039 0.2551-4.5344 2.25-0.0189 1.2375-1.5283 6.4978-3.3542 11.69l-3.3198 9.4396-3.1458-8.1574c-3.6931-9.5764-3.8075-10.797-1.1458-12.222 3.5743-1.9129 2.1248-3-4-3-5.861 0-7.543 1.0371-4.4706 2.7565 1.5053 0.84241 7.4365 13.686 11.092 24.02 1.1686 3.3034 2.3806 5.173 3.2411 5 0.77798-0.1564 3.3223-5.9182 5.8626-13.276zm26.275 10.5c0-0.55-0.675-1-1.5-1-1.2558 0-1.5-2.0992-1.5-12.893 0-10.538 0.27399-12.998 1.5-13.469 3.431-1.3166 1.1766-2.6384-4.5-2.6384s-7.931 1.3218-4.5 2.6384c1.222 0.46891 1.5 2.8786 1.5 13s-0.27804 12.531-1.5 13c-3.2844 1.2604-1.1859 2.3616 4.5 2.3616 3.3333 0 6-0.44444 6-1zm18 0.24055c0-0.4177-0.9-1.3215-2-2.0085-1.8114-1.1312-2-2.332-2-12.732s0.18863-11.601 2-12.732c3.3648-2.1014 2.2811-2.7679-4.5-2.7679s-7.8648 0.66657-4.5 2.7679c1.8208 1.1371 2 2.332 2 13.334 0 11.244-0.13918 12.122-2 12.608-4.1389 1.0824-1.766 2.2898 4.5 2.2898 3.575 0 6.5-0.34175 6.5-0.75945zm-32.275-56.741c2.4684-7.15 5.3401-13.929 6.3814-15.064 2.7433-2.9912 2.4062-3.4356-2.6067-3.4356-3.9898 0-4.5039 0.2551-4.5344 2.25-0.0189 1.2375-1.5283 6.4978-3.3542 11.69l-3.3198 9.4396-3.1458-8.1574c-3.6931-9.5764-3.8075-10.797-1.1458-12.222 3.5743-1.9129 2.1248-3-4-3-5.861 0-7.543 1.0371-4.4706 2.7565 1.5053 0.84241 7.4365 13.686 11.092 24.02 1.1686 3.3034 2.3806 5.173 3.2411 5 0.77798-0.1564 3.3223-5.9182 5.8626-13.276zm26.275 10.5c0-0.55-0.675-1-1.5-1-1.2558 0-1.5-2.0992-1.5-12.893 0-10.538 0.27399-12.998 1.5-13.469 3.431-1.3166 1.1766-2.6384-4.5-2.6384s-7.931 1.3218-4.5 2.6384c1.222 0.46891 1.5 2.8786 1.5 13s-0.27804 12.531-1.5 13c-3.2844 1.2603-1.1859 2.3616 4.5 2.3616 3.3333 0 6-0.44444 6-1z" style="fill-rule:evenodd;fill:#552200" inkscape:connector-curvature="0"/>     </g>   </g>   <metadata>     <rdf:rdf>       <cc:work>         <dc:format>image/svg+xml</dc:format>         <dc:type rdf:resource="http://purl.org/dc/dcmitype/StillImage"/>         <cc:license rdf:resource="http://creativecommons.org/licenses/publicdomain/"/>         <dc:publisher>           <cc:agent rdf:about="http://openclipart.org/">             <dc:title>Openclipart</dc:title>           </cc:agent>         </dc:publisher>         <dc:title>Ten Commandments.2</dc:title>         <dc:date>2012-07-06T13:55:54</dc:date>         <dc:description>Ten Commandments</dc:description>         <dc:source>https://openclipart.org/detail/171073/ten-commandments.2-by-siervo-171073</dc:source>         <dc:creator>           <cc:agent>             <dc:title>siervo</dc:title>           </cc:agent>         </dc:creator>         <dc:subject>           <rdf:bag>             <rdf:li>christian</rdf:li>             <rdf:li>commandments</rdf:li>             <rdf:li>law</rdf:li>             <rdf:li>statues</rdf:li>             <rdf:li>ten commandments</rdf:li>           </rdf:bag>         </dc:subject>       </cc:work>       <cc:license rdf:about="http://creativecommons.org/licenses/publicdomain/">         <cc:permits rdf:resource="http://creativecommons.org/ns#Reproduction"/>         <cc:permits rdf:resource="http://creativecommons.org/ns#Distribution"/>         <cc:permits rdf:resource="http://creativecommons.org/ns#DerivativeWorks"/>       </cc:license>     </rdf:rdf>   </metadata> </svg>