<svg xmlns="http://www.w3.org/2000/svg" xmlns:xlink="http://www.w3.org/1999/xlink" version="1.1" x="0px" y="0px" viewBox="0 0 48 60" style="enable-background:new 0 0 48 48;" xml:space="preserve"><path d="M9.706,30.294c0.39,0.39,0.39,1.024,0,1.414c-0.39,0.39-1.024,0.39-1.414,0c-0.39-0.39-0.39-1.024,0-1.414  C8.681,29.904,9.316,29.904,9.706,30.294z M40,34c-0.551,0-1,0.449-1,1s0.449,1,1,1s1-0.449,1-1S40.551,34,40,34z M48,34  c0,3.152-0.592,7.216-3.035,10.435C44.688,44.8,44.25,45,43.792,45c-4.984,0-34.422,0-39.49,0c-0.473,0-0.923-0.213-1.196-0.599  C0.604,40.857,0,35.909,0,32c0-3.691,0.367-6.9,1.061-9.28c0.13-0.444,0.565-0.732,1.007-0.719c0.462,0.022,0.848,0.357,0.935,0.811  l0.125,0.66c0.225,1.187,0.465,2.457,0.761,3.567c0.633-3.663-0.231-8.489-1.783-11.591c-0.174-0.349-0.13-0.768,0.114-1.073  c0.245-0.305,0.645-0.438,1.022-0.345c1.4,0.35,4.648,1.162,6.771,3.523c0.243-4.934,1.645-10.385,8.58-13.467  c0.388-0.17,0.839-0.081,1.129,0.223c0.292,0.305,0.36,0.761,0.171,1.138c-2.157,4.313-2.679,6.896-1.573,9.942  c0.396-1.983,1.094-3.251,1.736-4.417c1.114-2.022,1.994-3.619,0.962-8.777c-0.079-0.393,0.084-0.793,0.414-1.02  c0.33-0.227,0.762-0.235,1.101-0.022C28,4.606,28,8.88,28,12c0,1.932,0.431,3.659,1.146,4.819c0.172-1.2,0.467-2.056,0.721-2.792  c0.552-1.603,0.917-2.662-0.785-6.633c-0.174-0.407-0.061-0.88,0.279-1.163c0.34-0.285,0.826-0.309,1.194-0.063  c4.974,3.316,6.713,5.48,7.242,11.069c1.455-2.562,3.647-3.892,6.832-5.166c0.4-0.158,0.856-0.046,1.133,0.28  c0.278,0.327,0.317,0.795,0.096,1.163c-2.107,3.512-2.64,8.629-2.403,12.573c0.128-0.489,0.248-0.981,0.362-1.457l0.213-0.874  c0.102-0.406,0.445-0.706,0.861-0.751c0.408-0.046,0.816,0.172,1.003,0.547C46.527,24.819,48,28.372,48,34z M21.706,38.293l-2.999-3  C18.52,35.105,18.265,35,18,35l-3.585,0l-1-1H15c0.552,0,1-0.448,1-1v-3c0-0.552-0.448-1-1-1s-1,0.448-1,1v2h-2.183  c0.372-1.056,0.146-2.277-0.697-3.12c-1.17-1.17-3.073-1.17-4.243,0c-1.17,1.17-1.17,3.073,0,4.243  c0.844,0.844,2.066,1.069,3.123,0.696V36l-2-0.001h0c-0.552,0-1,0.447-1,1s0.447,1,1,1L11,38h0c0.265,0,0.52-0.105,0.707-0.292  C11.895,37.52,12,37.265,12,37v-1.586l3.999,4L16,42c0,0.552,0.448,1,1,1h0c0.552,0,1-0.448,1-1l-0.001-3  c0-0.265-0.105-0.519-0.293-0.707L16.414,37l1.172,0l2.707,2.707c0.391,0.39,1.024,0.39,1.414,0  C22.097,39.317,22.097,38.683,21.706,38.293z M43,35c0-1.654-1.346-3-3-3c-1.238,0-2.302,0.754-2.76,1.826L35.414,32l1.293-1.293  c0.391-0.391,0.391-1.023,0-1.414s-1.023-0.391-1.414,0l-2,2c-0.391,0.391-0.391,1.023,0,1.414L34.586,34L28,34  c-0.265,0-0.52,0.105-0.707,0.293l-3,3c-0.391,0.391-0.391,1.024,0,1.414c0.391,0.39,1.024,0.39,1.414,0L28.414,36h1.172  l-1.293,1.293C28.106,37.48,28,37.735,28,38l-0.001,4c0,0.552,0.447,1,1,1c0.552,0,1-0.448,1-1L30,38.415L32.414,36h2.172  l-1.293,1.293c-0.391,0.391-0.391,1.024,0,1.414l2,2c0.391,0.39,1.024,0.39,1.414,0c0.39-0.391,0.39-1.024,0-1.414L35.414,38  l1.826-1.826C37.698,37.246,38.762,38,40,38C41.654,38,43,36.654,43,35z" fill="#cf1920"/><text x="0" y="63" fill="#000000" font-size="5px" font-weight="bold" font-family="'Helvetica Neue', Helvetica, Arial-Unicode, Arial, Sans-serif"></text><text x="0" y="68" fill="#000000" font-size="5px" font-weight="bold" font-family="'Helvetica Neue', Helvetica, Arial-Unicode, Arial, Sans-serif"></text></svg>