<svg xmlns="http://www.w3.org/2000/svg"  width="575.279px" height="575.279px" viewBox="0 0 575.279 575.279" style="enable-background:new 0 0 575.279 575.279;"  xml:space="preserve">
	<defs>
		<linearGradient id="bee6f948-729b-4fc1-971c-9b33c93b461f" x1="9.286" y1="7.103" x2="8.876" y2="19.415" gradientUnits="userSpaceOnUse">
			<stop offset="0" stop-color="#e6e6e6" />
			<stop offset="1" stop-color="#b3b3b3" />
		</linearGradient>
	</defs>
	<title>Icon-613-Storage-Explorer-blue</title>
	
  <g id="eba65084-93f2-4c1d-af99-2c8b228075b7">
		<g>
          <path d="M287.639,0c-49.56,0-89.888,40.31-89.888,89.888V206.55c0,5.07-4.024,9.18-8.99,9.18h-8.987
			c-19.856,0-35.955,16.083-35.955,35.955v287.639c0,19.875,16.099,35.955,35.955,35.955h215.731
			c19.873,0,35.955-16.082,35.955-35.955v-62.729c0-5.07-4.111-9.18-9.182-9.18h-44.752c-9.936,0-17.977-8.043-17.977-17.979
			c0-9.939,8.041-17.977,17.977-17.977h44.752c5.07,0,9.182-4.111,9.182-9.182v-17.594c0-5.07-4.111-9.18-9.182-9.18h-44.752
			c-9.936,0-17.977-8.043-17.977-17.979c0-9.939,8.041-17.977,17.977-17.977h44.752c5.07,0,9.182-4.109,9.182-9.18v-17.596
			c0-5.07-4.111-9.18-9.182-9.18h-44.752c-9.936,0-17.977-8.043-17.977-17.979c0-9.938,8.041-17.977,17.977-17.977h44.752
			c5.07,0,9.182-4.11,9.182-9.177c0-6.582,0-16.142,0-26.778c0-19.856-12.072-35.955-26.965-35.955H386.71
			c-5.07,0-9.18-4.109-9.18-9.18V89.888C377.526,40.31,337.218,0,287.639,0z M341.571,206.55c0,5.07-4.109,9.18-9.18,9.18h-44.752
			h-44.752c-5.07,0-9.18-4.109-9.18-9.18V89.888c0-29.74,24.192-53.933,53.933-53.933c29.741,0,53.932,24.192,53.932,53.933V206.55z
			" fill="orange"/>			
		</g>
	</g>
  <g id="eba65084-93f2-4c1d-af99-2c8b228075b8">
      <g transform="scale(10,10) translate(15,30)">
        <path d="M16.218,6.589H11.293a.259.259,0,0,0-.259.259V9.829a.259.259,0,0,1-.259.259H6.406a.257.257,0,0,0-.257.257v3.043a.26.26,0,0,1-.26.259H1.521a.258.258,0,0,0-.258.257v3.581A.516.516,0,0,0,1.778,18h9.816a.233.233,0,0,0,.053-.006h4.571a.518.518,0,0,0,.519-.518V7.107A.518.518,0,0,0,16.218,6.589Z" fill="url(#bee6f948-729b-4fc1-971c-9b33c93b461f)" />
			<rect x="11.851" y="14.495" width="4.068" height="2.711" rx="0.259" fill="#005ba1" />
			<rect x="11.851" y="10.936" width="4.068" height="2.711" rx="0.259" fill="#5ea0ef" />
			<rect x="11.851" y="7.377" width="4.068" height="2.711" rx="0.259" fill="#fff" />
			<rect x="6.966" y="14.5" width="4.068" height="2.711" rx="0.259" fill="#005ba1" />
			<rect x="6.966" y="10.942" width="4.068" height="2.711" rx="0.259" fill="#fff" />
			<rect x="2.081" y="14.5" width="4.068" height="2.711" rx="0.259" fill="#005ba1" />
			<rect x="6.097" y="3.396" width="4.834" height="3.221" rx="0.308" fill="#5ea0ef" />
			<rect x="1.263" y="6.76" width="4.834" height="3.221" rx="0.308" fill="#0078d4" />
			<rect x="1.263" width="4.834" height="3.221" rx="0.308" fill="#83b9f9" />
      </g>
    </g>
</svg>